<svg xmlns="http://www.w3.org/2000/svg" shape-rendering="geometricPrecision" text-rendering="geometricPrecision" image-rendering="optimizeQuality" fill-rule="evenodd" clip-rule="evenodd" viewBox="0 0 512 434.251"><path fill="#DFC064" d="M85.219 331.993h157.313c34.131 0 62.055 27.924 62.055 62.055v40.203H23.163v-40.203c0-34.131 27.924-62.055 62.056-62.055z"/><path fill="#E5CC82" d="M85.219 331.993h75.869l143.499 102.258H23.163v-40.203c0-34.131 27.924-62.055 62.056-62.055z"/><path fill="#B52915" d="M113.057 110.357l.001-.003c3.576-9.416 14.207-14.193 23.622-10.615l8.967 3.406-13.006 34.242-8.966-3.406c-9.417-3.576-14.194-14.208-10.618-23.624z"/><path fill="#D4AE4B" d="M287.309 198.781l14.765-38.873-39.615-11.101-12.145 31.977z"/><path fill="#B52915" d="M286.853 199.979l15.675-41.267c1.554-4.094 6.173-6.17 10.266-4.616l194.074 73.714c4.094 1.555 6.17 6.175 4.615 10.269l-15.675 41.266c-1.554 4.093-6.173 6.168-10.265 4.614l-194.075-73.714c-4.094-1.556-6.169-6.174-4.615-10.266z"/><path fill="#DFC064" d="M117.608 176.965L160.68 63.566c.645.41 1.342.76 2.082 1.042l112.548 42.749c.87.33 1.757.547 2.644.658l-43.135 113.563a11.353 11.353 0 00-2.413-1.262l-112.547-42.749a11.4 11.4 0 00-2.251-.602z"/><rect fill="#B52915" y="394.048" width="327.218" height="40.202" rx="20.102" ry="20.102"/><path fill="#BF3823" d="M102.803 190.011l2.189-5.761c2.25-5.927 8.942-8.934 14.867-6.683l112.547 42.749c5.924 2.249 8.932 8.943 6.682 14.867l-2.198 5.787c-.58-.35-1.197-.653-1.851-.901l-130.413-49.534a11.663 11.663 0 00-1.823-.524zm55.466-146.032l-2.189 5.762c-2.251 5.925.758 12.618 6.682 14.867l112.548 42.749c5.925 2.25 12.618-.759 14.867-6.683l2.199-5.786a11.534 11.534 0 01-1.981-.557L159.98 44.797c-.6-.227-1.171-.503-1.711-.818z"/><path fill="#B52915" d="M81.212 219.717l8.546-22.499c2.25-5.926 8.942-8.933 14.867-6.682l130.414 49.534c5.926 2.251 8.933 8.943 6.683 14.868l-8.546 22.499c-2.251 5.926-8.94 8.933-14.867 6.682L87.894 234.585c-5.927-2.251-8.933-8.941-6.682-14.868z"/><path fill="#952F17" d="M81.212 219.717l8.545-22.498c2.251-5.927 8.944-8.932 14.868-6.683l66.228 25.153-16.731 44.051-66.227-25.157c-5.925-2.25-8.934-8.939-6.683-14.866zM161.844 7.43l-8.546 22.5c-2.251 5.925.757 12.617 6.682 14.867l130.415 49.535c5.925 2.25 12.617-.758 14.867-6.682l8.546-22.5c2.251-5.926-.756-12.616-6.682-14.868L176.711.748c-5.927-2.251-12.616.755-14.867 6.682z"/><path fill="#B52915" d="M229.716 71.283l60.679 23.049c5.924 2.25 12.617-.76 14.867-6.682l8.545-22.501c2.252-5.925-.756-12.616-6.681-14.867l-60.68-23.047-16.73 44.048z"/></svg>